<svg xmlns="http://www.w3.org/2000/svg" xmlns:xlink="http://www.w3.org/1999/xlink" width="58" height="58" viewBox="0 0 58 58">
    <defs>
        <path id="0t6oslwaea" d="M0 0H58V58H0z"/>
    </defs>
    <g fill="none" fill-rule="evenodd">
        <mask id="xmxapk07bb" fill="#fff">
            <use xlink:href="#0t6oslwaea"/>
        </mask>
        <g mask="url(#xmxapk07bb)">
            <g fill-rule="nonzero">
                <path fill="#D7E9FF" d="M34.8 0.906L27.55 9.969 34.8 19.031 57.456 19.031 57.456 0.906z" transform="translate(-1.45 1.45)"/>
                <path fill="#94C1FF" d="M54.735 0.906L57.456 0.906 57.456 19.031 54.735 19.031z" transform="translate(-1.45 1.45)"/>
                <path fill="#5C9EFF" d="M39.331 39.875L53.831 39.875 53.831 57.094 39.331 57.094z" transform="translate(-1.45 1.45)"/>
                <path fill="#94C1FF" d="M0.906 39.875L39.331 39.875 39.331 57.094 0.906 57.094z" transform="translate(-1.45 1.45)"/>
                <g fill="#116FFF">
                    <path d="M39.331 40.781H.906c-.501 0-.906-.405-.906-.906s.405-.906.906-.906h38.425c.502 0 .906.405.906.906s-.404.906-.906.906z" transform="translate(-1.45 1.45)"/>
                    <path d="M39.331 58c-.501 0-.906-.405-.906-.906V39.875c0-.501.405-.906.906-.906.502 0 .906.405.906.906v17.219c0 .501-.404.906-.906.906zM53.831 58c-.501 0-.906-.405-.906-.906V39.875c0-.501.405-.906.906-.906.502 0 .906.405.906.906v17.219c0 .501-.404.906-.906.906z" transform="translate(-1.45 1.45)"/>
                    <path d="M53.831 40.781h-14.5c-.501 0-.906-.405-.906-.906s.405-.906.906-.906h14.5c.502 0 .906.405.906.906s-.404.906-.906.906z" transform="translate(-1.45 1.45)"/>
                    <path d="M46.581 58c-.501 0-.906-.405-.906-.906V39.875c0-.501.405-.906.906-.906.502 0 .906.405.906.906v17.219c0 .501-.404.906-.906.906zM8.519 47.125c-.502 0-.907-.405-.907-.906V32.625c0-.501.405-.906.907-.906.501 0 .906.405.906.906v13.594c0 .501-.405.906-.906.906zM28.456 47.125c-.501 0-.906-.405-.906-.906V32.625c0-.501.405-.906.906-.906.502 0 .907.405.907.906v13.594c0 .501-.405.906-.907.906z" transform="translate(-1.45 1.45)"/>
                    <path d="M28.456 33.531c-.501 0-.906-.405-.906-.906 0-4.997-4.065-9.063-9.063-9.063-4.997 0-9.062 4.066-9.062 9.063 0 .501-.405.906-.906.906-.502 0-.907-.405-.907-.906 0-5.997 4.879-10.875 10.875-10.875 5.997 0 10.876 4.878 10.876 10.875 0 .501-.405.906-.907.906z" transform="translate(-1.45 1.45)"/>
                    <path d="M21.206 40.781c-.501 0-.906-.405-.906-.906v-7.25c0-.501.405-.906.906-.906.502 0 .907.405.907.906v7.25c0 .501-.405.906-.907.906zM41.144 40.781c-.502 0-.907-.405-.907-.906v-7.25c0-.501.405-.906.907-.906.501 0 .906.405.906.906v7.25c0 .501-.405.906-.906.906z" transform="translate(-1.45 1.45)"/>
                    <path d="M41.144 33.531c-.502 0-.907-.405-.907-.906 0-4.997-4.065-9.063-9.062-9.063-4.997 0-9.063 4.066-9.063 9.063 0 .501-.404.906-.906.906-.501 0-.906-.405-.906-.906 0-5.997 4.878-10.875 10.875-10.875S42.05 26.628 42.05 32.625c0 .501-.405.906-.906.906zM57.456 19.938H34.8c-.276 0-.535-.126-.708-.34l-7.25-9.064c-.265-.33-.265-.802 0-1.133L34.092.34c.173-.215.432-.34.708-.34h22.656c.502 0 .906.405.906.906v18.125c0 .502-.404.907-.906.907zm-22.221-1.813H56.55V1.812H35.235L28.71 9.969l6.525 8.157z" transform="translate(-1.45 1.45)"/>
                    <path d="M28.275 23.925c-.501 0-.906-.405-.906-.906V9.425c0-.501.405-.906.906-.906s.906.405.906.906v13.594c0 .501-.405.906-.906.906zM41.597 9.063c-1.25 0-2.266-1.016-2.266-2.266s1.016-2.266 2.266-2.266 2.265 1.016 2.265 2.266-1.015 2.266-2.265 2.266zm0-2.72c-.25 0-.453.205-.453.454 0 .249.204.453.453.453.249 0 .453-.204.453-.453 0-.25-.204-.453-.453-.453zM47.94 15.406c-1.249 0-2.265-1.016-2.265-2.265 0-1.25 1.016-2.266 2.266-2.266s2.265 1.016 2.265 2.266-1.016 2.265-2.265 2.265zm0-2.719c-.249 0-.453.204-.453.454 0 .249.204.453.454.453.249 0 .453-.204.453-.453 0-.25-.204-.454-.453-.454zM40.237 15.406c-.231 0-.464-.089-.64-.265-.355-.355-.355-.927 0-1.282l9.062-9.062c.355-.355.927-.355 1.282 0 .354.354.354.927 0 1.281l-9.063 9.063c-.176.176-.409.265-.64.265z" transform="translate(-1.45 1.45)"/>
                </g>
            </g>
        </g>
    </g>
</svg>
